<svg width="4817" height="4300" viewBox="0 0 4817 4300" fill="none" xmlns="http://www.w3.org/2000/svg">
<g clip-path="url(#clip0)">
<path d="M1319.34 547.87C1005.06 898.09 841.24 1340.26 795.26 1776.57C750.13 2212.88 822.85 2644.18 999.26 3079.66C1174.79 3514.3 1453.96 3953.12 1864.36 4159.58C2275.6 4366.03 2818.9 4339.28 3225.13 4114.44C3630.41 3889.6 3899.61 3465.82 4176.27 3027C4452.93 2588.18 4737.96 2134.31 4641 1775.74C4544.04 1417.17 4065.94 1154.74 3655.54 821.2C3245.14 488.53 2903.27 84.81 2500.41 12.09C2097.52 -59.79 1633.62 197.65 1319.34 547.87Z" fill="#F0F0F0"/>
<path d="M4253.04 3498.87L4525.89 2744.49L4798.75 1990.1L4009.01 2131L3219.26 2271.88L3736.15 2885.38L4253.04 3498.87Z" stroke="#B7C7FB" stroke-width="35.31" stroke-linecap="round" stroke-linejoin="round"/>
<path fill-rule="evenodd" clip-rule="evenodd" d="M4514.27 645.31H1959.86V3104.65H4514.27V645.31Z" fill="#EAF0FF"/>
<path fill-rule="evenodd" clip-rule="evenodd" d="M3773.41 1049.38H2349.92V1147.63H3773.41V1049.38Z" fill="#B2C3FB"/>
<path fill-rule="evenodd" clip-rule="evenodd" d="M3773.41 1487.41H2349.92V1585.65H3773.41V1487.41Z" fill="#B2C3FB"/>
<path fill-rule="evenodd" clip-rule="evenodd" d="M3773.41 1925.43H2349.92V2023.69H3773.41V1925.43Z" fill="#B2C3FB"/>
<path d="M3997.88 1004.33L4162.97 1160.33L4241.97 1085.73" stroke="#B2C3FB" stroke-width="35.31" stroke-linecap="round" stroke-linejoin="round"/>
<path d="M3997.88 1463.1L4162.97 1619.1L4241.97 1544.5" stroke="#B2C3FB" stroke-width="35.31" stroke-linecap="round" stroke-linejoin="round"/>
<path d="M3997.88 1921.87L4162.97 2077.87L4241.97 2003.27" stroke="#B2C3FB" stroke-width="35.31" stroke-linecap="round" stroke-linejoin="round"/>
<path fill-rule="evenodd" clip-rule="evenodd" d="M3773.41 2363.47H2349.92V2461.72H3773.41V2363.47Z" fill="#F4F7FF"/>
<path fill-rule="evenodd" clip-rule="evenodd" d="M3773.41 2801.5H2349.92V2899.76H3773.41V2801.5Z" fill="#F4F7FF"/>
<path d="M1241.17 2624.93C1241.17 2287.07 967.28 2013.18 629.41 2013.18C291.54 2013.18 17.6599 2287.07 17.6599 2624.93C17.6599 2962.79 291.55 3236.69 629.41 3236.69C967.27 3236.69 1241.17 2962.8 1241.17 2624.93Z" stroke="#E9EFFF" stroke-width="35.31" stroke-linecap="round" stroke-linejoin="round"/>
<path fill-rule="evenodd" clip-rule="evenodd" d="M2143.73 1726.72C2300.89 1695.35 2496.21 1890.55 2482.55 2178.64L2292.95 2218.01C2292.95 2218.01 2130.04 1729.45 2143.73 1726.72Z" fill="#46DBC9"/>
<path d="M2503.66 2044.94C2508.31 2079.73 2509.78 2114.88 2508.05 2149.94" stroke="#1B3C87" stroke-width="21.13" stroke-linecap="round" stroke-linejoin="round"/>
<path d="M2169.25 1698C2268.78 1678.14 2383.6 1749.13 2450.97 1877" stroke="#1B3C87" stroke-width="21.13" stroke-linecap="round" stroke-linejoin="round"/>
<path fill-rule="evenodd" clip-rule="evenodd" d="M1779.19 1608.88C1185.87 1608.88 1071.09 2294.88 1149.91 3250.51C1407.15 3358.39 2039.19 3413.71 2318.56 3243.6C2449.95 2875.71 2526.26 1608.88 1779.19 1608.88Z" fill="#46DBC9"/>
<path fill-rule="evenodd" clip-rule="evenodd" d="M2206.72 993.35C2206.72 741.61 2054.72 537.53 1867.21 537.53C1679.7 537.53 1527.71 741.61 1527.71 993.35C1527.71 1245.09 1679.71 1449.18 1867.21 1449.18C2054.71 1449.18 2206.72 1245.1 2206.72 993.35Z" fill="white"/>
<path fill-rule="evenodd" clip-rule="evenodd" d="M1930.66 993.67C1930.66 971.67 1921.53 953.88 1910.29 953.88C1899.05 953.88 1889.91 971.69 1889.91 993.67C1889.91 1015.65 1899.03 1033.44 1910.29 1033.44C1921.55 1033.44 1930.66 1015.63 1930.66 993.67Z" fill="#1B3C87"/>
<path d="M2024.41 1067.74C2025.06 1092.31 2032.18 1145.36 2066.41 1179.65" stroke="#1B3C87" stroke-width="21.13" stroke-linecap="round" stroke-linejoin="round"/>
<path d="M1946.83 1278.62C1918.37 1274.75 1882.83 1263.75 1860.15 1230.11" stroke="#1B3C87" stroke-width="21.13" stroke-linecap="round" stroke-linejoin="round"/>
<path d="M1308.68 2340.42C1289.47 2395.25 1247.17 2541.27 1247.17 2541.27C1247.17 2541.27 1546.75 2387.5 1687.57 2316.43" stroke="#1B3C87" stroke-width="21.13" stroke-linecap="round" stroke-linejoin="round"/>
<path d="M2038.41 2367.29L2074.17 2485.2" stroke="#1B3C87" stroke-width="21.13" stroke-linecap="round" stroke-linejoin="round"/>
<path d="M1924.97 1993.4L1972.56 2150.28" stroke="#1B3C87" stroke-width="21.13" stroke-linecap="round" stroke-linejoin="round"/>
<path d="M1685.68 3313.87C1936.15 3329.87 2204.22 3305.45 2361.08 3209.94C2459.19 2935.24 2526.59 2159.36 2243.44 1783.94" stroke="#1B3C87" stroke-width="21.13" stroke-linecap="round" stroke-linejoin="round"/>
<path d="M2073.49 1634.94C2002.4 1596.72 1919.04 1575.22 1821.71 1575.22C1228.4 1575.22 1113.61 2261.22 1192.44 3216.85C1231.58 3233.26 1279.39 3248.46 1333.32 3261.85" stroke="#1B3C87" stroke-width="21.13" stroke-linecap="round" stroke-linejoin="round"/>
<path d="M1204.65 3204.12C1204.65 3267.91 1214.54 4222.63 1214.54 4222.63" stroke="#1B3C87" stroke-width="21.13" stroke-linecap="round" stroke-linejoin="round"/>
<path fill-rule="evenodd" clip-rule="evenodd" d="M1934.94 2194.31C1970.7 2194.31 2125.37 2214.01 2037.81 2357.02C1987.64 2438.97 1966.93 2415.4 1945.89 2389.48C1929.51 2398.01 1904.24 2418.14 1887.96 2431.64C1888.08 2431.91 1888.17 2432.18 1888.29 2432.45C1844.05 2466.95 1260.22 2976.65 1140.15 3007.21C1020.08 3037.77 885.05 2919.02 833.15 2829.7C775.85 2731.2 884.49 2331.58 903.67 2287.51C922.85 2243.44 1274.29 2385.14 1274.29 2385.14C1274.29 2385.14 1217.38 2555.38 1202.37 2625.75C1235.48 2607.12 1757.63 2351.91 1825.64 2273.45C1825.74 2273.68 1825.88 2274.08 1826 2274.3C1850.89 2248.85 1907.41 2194.31 1934.94 2194.31Z" fill="white"/>
<path d="M2369.13 3194.82L2369.85 4117.82" stroke="#1B3C87" stroke-width="21.13" stroke-linecap="round" stroke-linejoin="round"/>
<path d="M1926.86 3780.63C1894.38 3919.48 1858.76 4073.38 1824.38 4222.63" stroke="#1B3C87" stroke-width="21.13" stroke-linecap="round" stroke-linejoin="round"/>
<path fill-rule="evenodd" clip-rule="evenodd" d="M1576.35 1182.1C1578.27 1205.29 1628.52 1596.37 1610.49 1735.53C1653.65 1772.25 1952.3 1777.65 1946.15 1722.65C1935.84 1630.51 1913.93 1487.49 1932.63 1414.65" fill="white"/>
<path d="M1972.53 1682.07C1962.22 1589.94 1946.96 1490.29 1957.15 1408.21" stroke="#1B3C87" stroke-width="21.13" stroke-linecap="round" stroke-linejoin="round"/>
<path d="M1606.76 1197.4C1608.7 1220.59 1654.9 1555.79 1636.87 1694.95C1653.87 1709.44 1710.67 1719.05 1772.8 1721.95" stroke="#1B3C87" stroke-width="21.13" stroke-linecap="round" stroke-linejoin="round"/>
<path d="M1744.79 1367.18C1789.74 1396.68 1840.25 1413.18 1893.65 1413.18C2011.92 1413.18 2116.06 1332 2176.85 1208.86" stroke="#1B3C87" stroke-width="21.13" stroke-linecap="round" stroke-linejoin="round"/>
<path d="M2223 1068.51C2229.79 1031.86 2233.19 994.67 2233.16 957.4C2233.16 705.65 2081.16 501.58 1893.65 501.58C1706.14 501.58 1554.15 705.65 1554.15 957.4C1554.15 1069.46 1584.27 1172.07 1634.22 1251.45" stroke="#1B3C87" stroke-width="21.13" stroke-linecap="round" stroke-linejoin="round"/>
<path fill-rule="evenodd" clip-rule="evenodd" d="M1556.84 1244.41C1518.76 1251.31 1454.41 1045.58 1441.27 921.49C1417.89 700.43 1649.73 419.18 1822.93 401.79C1856.93 398.38 1895.33 433.37 1874.48 491.92C1916.48 447.86 2026.59 389.59 2121.69 377.36C2266.17 358.8 2335.98 454.81 2335.98 497.58C2335.98 540.35 2310.04 674.22 2258.19 715.58C2300.09 715.06 2337.37 718.91 2342.03 752.84C2356.41 857.47 2297.1 952 2196.75 942.34C2189.75 883.4 2177.13 826.34 2156.48 787.94C2139.71 939 1755.67 888.37 1756.41 913.59C1759.32 1010.74 1644.02 1010.75 1640.02 1013.15C1550.98 1066.55 1617.56 1233.38 1556.84 1244.41Z" fill="#EDCA55"/>
<path d="M2367.8 494.18C2358.8 551.88 2334.18 640 2293.86 672.18C2335.74 671.66 2373.04 675.51 2377.7 709.44C2390.07 799.56 2347.81 882.13 2271.77 897.21" stroke="#1B3C87" stroke-width="21.13" stroke-linecap="round" stroke-linejoin="round"/>
<path d="M1582.67 557.15C1660.51 449.42 1767.67 367.52 1858.58 358.39C1892.58 354.98 1931 389.96 1910.15 448.51C1952.09 404.45 2062.24 346.18 2157.35 333.96C2219.93 325.96 2268.5 339.36 2303.46 360.68" stroke="#1B3C87" stroke-width="21.13" stroke-linecap="round" stroke-linejoin="round"/>
<path d="M1621.7 1142.22C1619.59 1173.44 1614.09 1197.07 1592.5 1200.99C1554.43 1207.9 1490.06 1002.17 1476.94 878.08C1473.09 841.76 1476.14 803.83 1484.68 765.72" stroke="#1B3C87" stroke-width="21.13" stroke-linecap="round" stroke-linejoin="round"/>
<path d="M2209.26 785.6C2204.76 771.435 2199.03 757.692 2192.13 744.53C2175.36 895.59 1791.33 844.96 1792.13 870.18C1792.59 885.57 1790.13 898.53 1785.52 909.45" stroke="#1B3C87" stroke-width="21.13" stroke-linecap="round" stroke-linejoin="round"/>
<path fill-rule="evenodd" clip-rule="evenodd" d="M1720.27 968C1709.18 960.301 1696.44 955.32 1683.07 953.46C1669.7 951.6 1656.08 952.914 1643.31 957.296C1630.54 961.677 1618.98 969.002 1609.57 978.679C1600.16 988.356 1593.16 1000.11 1589.13 1013C1585.11 1025.88 1584.17 1039.53 1586.4 1052.85C1588.63 1066.16 1593.96 1078.76 1601.97 1089.63C1609.97 1100.5 1620.42 1109.34 1632.48 1115.42C1644.53 1121.5 1657.84 1124.66 1671.34 1124.64C1676.55 1124.64 1681.76 1124.17 1686.89 1123.24" fill="white"/>
<path d="M1728.09 950.06C1717 942.361 1704.26 937.38 1690.89 935.52C1677.52 933.66 1663.9 934.974 1651.13 939.356C1638.36 943.737 1626.8 951.062 1617.39 960.739C1607.98 970.416 1600.98 982.173 1596.95 995.058C1592.93 1007.94 1591.99 1021.59 1594.22 1034.91C1596.45 1048.22 1601.78 1060.82 1609.79 1071.69C1617.79 1082.56 1628.24 1091.4 1640.3 1097.48C1652.35 1103.56 1665.66 1106.72 1679.16 1106.7C1684.37 1106.71 1689.57 1106.24 1694.69 1105.31" stroke="#1B3C87" stroke-width="21.13" stroke-linecap="round" stroke-linejoin="round"/>
<path fill-rule="evenodd" clip-rule="evenodd" d="M2741.03 2167.68L2116.81 2267.36L2267.75 3212.48L2891.96 3112.8L2741.03 2167.68Z" fill="#B2C3FB"/>
<path d="M2920.95 3052.88L2770.02 2107.76L2145.8 2207.46L2194.41 2512.07" stroke="#1B3C87" stroke-width="21.13" stroke-linecap="round" stroke-linejoin="round"/>
<path d="M2250.03 2860.15L2296.74 3152.57L2722.45 3084.57" stroke="#1B3C87" stroke-width="21.13" stroke-linecap="round" stroke-linejoin="round"/>
<path fill-rule="evenodd" clip-rule="evenodd" d="M2920.33 2932.79C2948.74 2717.98 2926.88 2577.43 2804.56 2537.38C2755.18 2521.22 2803.82 2835.21 2823.49 2886.91C2843.16 2938.61 2897.04 2879.63 2920.33 2932.79Z" fill="white"/>
<path d="M2940.11 2701.57C2953.68 2657.03 2945.93 2561.19 2792.95 2506.96" stroke="#1B3C87" stroke-width="21.13" stroke-linecap="round" stroke-linejoin="round"/>
<path d="M2949.8 2833.25C2963.35 2788.72 2955.61 2692.86 2802.63 2638.65" stroke="#1B3C87" stroke-width="21.13" stroke-linecap="round" stroke-linejoin="round"/>
<path d="M2941.08 2946.54C2954.64 2902 2946.9 2806.14 2793.92 2751.92" stroke="#1B3C87" stroke-width="21.13" stroke-linecap="round" stroke-linejoin="round"/>
<path d="M1758.41 987.51C1752.06 972.397 1741.53 959.406 1728.06 950.06" stroke="#1B3C87" stroke-width="21.13" stroke-linecap="round" stroke-linejoin="round"/>
<path d="M844.71 2726.08C847.3 2744.63 851.71 2760.14 858.37 2771.58C910.31 2860.9 1045.37 2979.66 1165.37 2949.1C1285.37 2918.54 1862.13 2396.82 1913.51 2374.33" stroke="#1B3C87" stroke-width="21.13" stroke-linecap="round" stroke-linejoin="round"/>
<path d="M928.9 2229.4C919.03 2252.09 885.44 2369.02 862.99 2490.57" stroke="#1B3C87" stroke-width="21.13" stroke-linecap="round" stroke-linejoin="round"/>
<path d="M1857.73 2234.14C1900.22 2114.86 1991.79 2147.56 2080.95 2225.32" stroke="#1B3C87" stroke-width="21.13" stroke-linecap="round" stroke-linejoin="round"/>
<path d="M1956.23 2249.51C1981.23 2247.68 2043.14 2271.15 2071.42 2295.41" stroke="#1B3C87" stroke-width="21.13" stroke-linecap="round" stroke-linejoin="round"/>
<path d="M1938.15 2323.9C1965.15 2323.31 2009.15 2345.02 2042.95 2361.58" stroke="#1B3C87" stroke-width="21.13" stroke-linecap="round" stroke-linejoin="round"/>
<path fill-rule="evenodd" clip-rule="evenodd" d="M1365.97 1683.42C1087.24 1588.67 819.23 2190.78 832.35 2253.9C845.47 2317.02 1284.21 2444.32 1334.78 2404.46C1385.35 2364.6 1527.41 1738.3 1365.97 1683.42Z" fill="#46DBC9"/>
<path d="M1259.9 2365.1C1314.25 2374.18 1356.31 2375.64 1369.99 2364.86C1392.21 2347.33 1432.13 2216.53 1456.17 2070.75" stroke="#1B3C87" stroke-width="21.13" stroke-linecap="round" stroke-linejoin="round"/>
<path d="M1313.04 1635.73C1068.68 1670.9 855.83 2157.89 867.56 2214.29C874.72 2248.72 1008.56 2302.29 1136.9 2337.29" stroke="#1B3C87" stroke-width="21.13" stroke-linecap="round" stroke-linejoin="round"/>
<path fill-rule="evenodd" clip-rule="evenodd" d="M1184.84 4222.63L1183.93 3258.83L2337.57 3251.49L2341.64 4222.63H1184.84Z" fill="#3C3744"/>
</g>
<defs>
<clipPath id="clip0">
<rect width="4816.41" height="4299.87" fill="white" transform="matrix(-1 0 0 1 4816.41 0)"/>
</clipPath>
</defs>
</svg>
