<svg width="736" height="148" viewBox="0 0 736 148" fill="none" xmlns="http://www.w3.org/2000/svg">
<path fill-rule="evenodd" clip-rule="evenodd" d="M64.1212 142.583C64.1212 145.114 61.8912 147.075 59.4128 146.582C25.5367 139.846 0 109.91 0 74C0 33.1311 33.0768 0 73.8788 0C114.681 0 147.758 33.1311 147.758 74C147.758 109.91 122.221 139.846 88.3448 146.582C85.8664 147.075 83.6364 145.114 83.6364 142.583V125.314C83.6364 123.322 85.0448 121.624 86.9612 121.091C107.553 115.364 122.667 96.4499 122.667 74C122.667 47.0109 100.824 25.1321 73.8788 25.1321C46.9339 25.1321 25.0909 47.0109 25.0909 74C25.0909 96.4499 40.2046 115.364 60.7964 121.091C62.7128 121.624 64.1212 123.322 64.1212 125.314V142.583Z" fill="#203280"/>
<path fill-rule="evenodd" clip-rule="evenodd" d="M80.8427 105.354C95.2008 102.168 105.939 89.3403 105.939 74C105.939 56.2643 91.5855 41.8868 73.8788 41.8868C56.1722 41.8868 41.8182 56.2643 41.8182 74C41.8182 89.3381 52.5538 102.165 66.9091 105.352V79.5874V79.5676H66.9234L71.5557 73.1385L66.9091 66.6896C72.3536 63.3722 75.4041 63.4387 80.8485 66.6896L76.202 73.1385L80.8343 79.5676H80.8427V79.5793L80.8485 79.5874H80.8427V105.354Z" fill="#D50500"/>
<path d="M170.061 53.0566H172.849C183.626 53.0566 192.364 61.8082 192.364 72.6038V114.491H170.061V53.0566Z" fill="#FF0000"/>
<path d="M181.212 50.2642C187.371 50.2642 192.364 45.2633 192.364 39.0943C192.364 32.9254 187.371 27.9245 181.212 27.9245C175.053 27.9245 170.061 32.9254 170.061 39.0943C170.061 45.2633 175.053 50.2642 181.212 50.2642Z" fill="#FF0000"/>
<path d="M197.939 72.6038C197.939 61.8082 206.677 53.0566 217.455 53.0566V114.491H197.939V72.6038Z" fill="#FF0000"/>
<path d="M259.273 53.0566H217.455V75.3962H259.273V53.0566Z" fill="#FF0000"/>
<path d="M239.758 53.0566H259.273V94.9434C259.273 105.739 250.536 114.491 239.758 114.491V53.0566Z" fill="#FF0000"/>
<path fill-rule="evenodd" clip-rule="evenodd" d="M323.394 33.5094C312.616 33.5094 303.879 42.261 303.879 53.0566H284.364C273.586 53.0566 264.849 61.8081 264.849 72.6038V94.9434C264.849 105.739 273.586 114.491 284.364 114.491H306.667C317.445 114.491 326.182 105.739 326.182 94.9434V55.849V53.0566V33.5094H323.394ZM284.364 78.1887C284.364 75.1041 286.859 72.6038 289.939 72.6038H301.091C304.172 72.6038 306.667 75.1041 306.667 78.1887V89.3585C306.667 92.443 304.172 94.9434 301.091 94.9434H289.939C286.859 94.9434 284.364 92.443 284.364 89.3585V78.1887Z" fill="#FF0000"/>
<path fill-rule="evenodd" clip-rule="evenodd" d="M351.273 53.0566C340.495 53.0566 331.758 61.8082 331.758 72.6038V94.9434C331.758 105.739 340.495 114.491 351.273 114.491H373.576C384.354 114.491 393.091 105.739 393.091 94.9434V72.6038C393.091 61.8082 384.354 53.0566 373.576 53.0566H351.273ZM356.848 72.6038C353.768 72.6038 351.273 75.1041 351.273 78.1887V89.3585C351.273 92.443 353.768 94.9434 356.848 94.9434H368C371.081 94.9434 373.576 92.443 373.576 89.3585V78.1887C373.576 75.1041 371.081 72.6038 368 72.6038H356.848Z" fill="#FF0000"/>
<path fill-rule="evenodd" clip-rule="evenodd" d="M398.667 72.6038C398.667 61.8082 407.404 53.0566 418.182 53.0566H440.485C451.263 53.0566 460 61.8082 460 72.6038V114.491C459.105 123.944 456.922 128.572 446.061 134.038H418.182C419.573 123.368 422.484 118.978 432.121 114.491H418.182C407.404 114.491 398.667 105.739 398.667 94.9434V72.6038ZM418.182 78.1887C418.182 75.1041 420.677 72.6038 423.758 72.6038H434.909C437.99 72.6038 440.485 75.1041 440.485 78.1887V89.3585C440.485 92.443 437.99 94.9434 434.909 94.9434H423.758C420.677 94.9434 418.182 92.443 418.182 89.3585V78.1887Z" fill="#001F90"/>
<path fill-rule="evenodd" clip-rule="evenodd" d="M465.576 72.6038C465.576 61.8082 474.313 53.0566 485.091 53.0566H507.394C518.172 53.0566 526.909 61.8082 526.909 72.6038L505.18 95.6415H526.898C526.53 106.114 517.938 114.491 507.394 114.491H485.091C474.313 114.491 465.576 105.739 465.576 94.9434V72.6038ZM485.091 78.1887C485.091 75.1041 487.586 72.6038 490.667 72.6038H501.818C503.382 72.6038 504.796 73.2483 505.808 74.2862L487.355 93.851C485.98 92.8337 485.091 91.2001 485.091 89.3585V78.1887Z" fill="#001F90"/>
<path fill-rule="evenodd" clip-rule="evenodd" d="M532.485 53.0566C532.485 42.261 541.222 33.5094 552 33.5094V55.849H573.467C571.529 65.4087 563.09 72.6038 552.976 72.6038C552.65 72.6038 552.323 72.5962 552 72.5814V97.7358H573.467C571.529 107.296 563.093 114.491 552.976 114.491C542.861 114.491 534.422 107.296 532.485 97.7358V55.849V53.0566Z" fill="#001F90"/>
<path d="M591.03 53.0566C597.189 53.0566 602.182 48.0557 602.182 41.8868C602.182 35.7179 597.189 30.717 591.03 30.717C584.871 30.717 579.879 35.7179 579.879 41.8868C579.879 48.0557 584.871 53.0566 591.03 53.0566Z" fill="#001F90"/>
<path d="M579.879 55.8491H602.182V114.491C602.182 125.286 593.445 134.038 582.667 134.038H579.879V55.8491Z" fill="#001F90"/>
<path fill-rule="evenodd" clip-rule="evenodd" d="M627.273 55.8491C616.495 55.8491 607.758 64.6006 607.758 75.3962V97.7359C607.758 108.531 616.495 117.283 627.273 117.283H649.576C660.354 117.283 669.091 108.531 669.091 97.7359V75.3962C669.091 64.6006 660.354 55.8491 649.576 55.8491H627.273ZM632.848 75.3962C629.768 75.3962 627.273 77.8966 627.273 80.9811V92.1509C627.273 95.2355 629.768 97.7359 632.848 97.7359H644C647.081 97.7359 649.576 95.2355 649.576 92.1509V80.9811C649.576 77.8966 647.081 75.3962 644 75.3962H632.848Z" fill="#001F90"/>
<path fill-rule="evenodd" clip-rule="evenodd" d="M694.182 36.3019C683.404 36.3019 674.667 45.0534 674.667 55.8491V58.6415V97.7358C674.667 108.531 683.404 117.283 694.182 117.283H716.485C727.263 117.283 736 108.531 736 97.7358V75.3962C736 64.6006 727.263 55.8491 716.485 55.8491H696.97V36.3019H694.182ZM694.182 80.9811C694.182 77.8966 696.677 75.3962 699.758 75.3962H710.909C713.99 75.3962 716.485 77.8966 716.485 80.9811V92.1509C716.485 95.2355 713.99 97.7358 710.909 97.7358H699.758C696.677 97.7358 694.182 95.2355 694.182 92.1509V80.9811Z" fill="#001F90"/>
</svg>
