<svg width="55" height="55" viewBox="0 0 55 55" fill="none" xmlns="http://www.w3.org/2000/svg">
<circle opacity="0.7" cx="27.5" cy="27.5" r="27.5" fill="#959DB7"/>
<path d="M27.775 11C25.4125 11 23.5667 11.8676 22.2378 13.6027C20.9089 15.3378 20.2445 17.5558 20.2445 20.2567C20.2281 23.6124 21.3109 26.2723 23.4929 28.2366C23.7718 28.4985 23.8703 28.8341 23.7882 29.2433L23.2222 30.4219C23.0417 30.8147 22.7751 31.1217 22.4224 31.3426C22.0697 31.5636 21.3273 31.8787 20.1953 32.2879C20.146 32.3043 19.1083 32.6399 17.0822 33.2946C15.056 33.9494 13.9773 34.3095 13.846 34.375C12.4679 34.9479 11.5656 35.5454 11.139 36.1674C10.6796 37.1987 10.45 39.8095 10.45 44H45.1C45.1 39.8095 44.8703 37.1987 44.4109 36.1674C43.9843 35.5454 43.082 34.9479 41.7039 34.375C41.5726 34.3095 40.4939 33.9494 38.4677 33.2946C36.4416 32.6399 35.4039 32.3043 35.3546 32.2879C34.2226 31.8787 33.4802 31.5636 33.1275 31.3426C32.7748 31.1217 32.5082 30.8147 32.3277 30.4219L31.7617 29.2433C31.6796 28.8341 31.7781 28.4985 32.057 28.2366C34.239 26.2723 35.3218 23.6124 35.3054 20.2567C35.3054 17.5558 34.641 15.3378 33.3121 13.6027C31.9832 11.8676 30.1375 11 27.775 11Z" fill="black"/>
</svg>
