<svg width="122" height="113" viewBox="0 0 122 113" fill="none" xmlns="http://www.w3.org/2000/svg">
<circle cx="102" cy="93" r="19.5" fill="white" stroke="black"/>
<path d="M108.32 95.41H101.93V101.77H100.07V95.41H93.68V93.52H100.07V87.13H101.93V93.52H108.32V95.41Z" fill="black"/>
<circle opacity="0.7" cx="50" cy="50" r="50" fill="black"/>
<path d="M50.5 20C46.2045 20 42.8487 21.5774 40.4325 24.7321C38.0163 27.8869 36.8082 31.9196 36.8082 36.8304C36.7784 42.9315 38.7472 47.7679 42.7145 51.3393C43.2216 51.8155 43.4006 52.4256 43.2514 53.1696L42.2223 55.3125C41.8942 56.0268 41.4094 56.5848 40.7681 56.9866C40.1268 57.3884 38.777 57.9613 36.7187 58.7054C36.6293 58.7351 34.7425 59.3452 31.0586 60.5357C27.3746 61.7262 25.4134 62.381 25.1747 62.5C22.669 63.5417 21.0284 64.628 20.2528 65.7589C19.4176 67.6339 19 72.381 19 80H82C82 72.381 81.5824 67.6339 80.7472 65.7589C79.9716 64.628 78.331 63.5417 75.8253 62.5C75.5866 62.381 73.6254 61.7262 69.9414 60.5357C66.2575 59.3452 64.3707 58.7351 64.2812 58.7054C62.223 57.9613 60.8732 57.3884 60.2319 56.9866C59.5906 56.5848 59.1058 56.0268 58.7777 55.3125L57.7486 53.1696C57.5994 52.4256 57.7784 51.8155 58.2855 51.3393C62.2528 47.7679 64.2216 42.9315 64.1918 36.8304C64.1918 31.9196 62.9837 27.8869 60.5675 24.7321C58.1513 21.5774 54.7955 20 50.5 20Z" fill="white"/>
</svg>
